<?xml version="1.0" standalone="no"?>
<!DOCTYPE svg PUBLIC "-//W3C//DTD SVG 20010904//EN"
 "http://www.w3.org/TR/2001/REC-SVG-20010904/DTD/svg10.dtd">
<svg version="1.0" xmlns="http://www.w3.org/2000/svg"
 width="1024.000000pt" height="1024.000000pt" viewBox="0 0 1024.000000 1024.000000"
 preserveAspectRatio="xMidYMid meet">
<metadata>
Created by potrace 1.14, written by Peter Selinger 2001-2017
</metadata>
<g transform="translate(0.000000,1024.000000) scale(0.100000,-0.100000)"
fill="#000000" stroke="none">
<path d="M0 5120 l0 -5120 5120 0 5120 0 0 5120 0 5120 -5120 0 -5120 0 0
-5120z m4150 2545 c244 -43 468 -170 667 -379 90 -94 198 -236 264 -348 18
-32 36 -58 39 -58 3 1 29 41 59 90 203 333 474 564 771 658 359 113 705 37
950 -208 145 -145 231 -319 260 -531 20 -138 -5 -322 -59 -444 l-20 -45 68 0
c98 0 166 -15 246 -54 115 -57 205 -158 253 -283 26 -68 26 -70 30 -403 3
-278 1 -348 -12 -403 -23 -98 -59 -160 -137 -239 -78 -78 -158 -121 -255 -139
-32 -6 -69 -13 -81 -15 l-22 -4 -4 -828 c-3 -931 1 -879 -82 -1047 -51 -105
-113 -181 -208 -256 -75 -59 -111 -80 -202 -116 -135 -54 -99 -53 -1560 -53
-923 0 -1371 3 -1407 11 -339 68 -580 319 -628 654 -6 42 -10 387 -10 852 l0
781 -27 6 c-16 2 -49 7 -74 11 -26 3 -79 21 -119 41 -138 66 -252 214 -280
363 -13 69 -13 642 0 712 22 118 110 248 218 323 69 48 166 77 273 83 l96 6
-24 59 c-41 101 -56 192 -56 333 1 159 21 246 92 390 178 359 573 552 981 480z"/>
<path d="M3900 7160 c-113 -20 -220 -101 -272 -208 -31 -63 -33 -73 -33 -172
1 -87 5 -113 23 -153 34 -75 111 -149 195 -188 l72 -34 443 -3 442 -3 -21 53
c-54 138 -153 303 -257 428 -172 206 -400 314 -592 280z"/>
<path d="M6175 7159 c-80 -11 -222 -83 -304 -153 -148 -127 -287 -332 -385
-569 l-15 -38 447 3 447 3 66 32 c80 39 150 111 187 191 24 50 27 69 27 162 0
100 -1 108 -34 168 -59 108 -157 178 -281 202 -59 11 -70 11 -155 -1z"/>
<path d="M3077 5883 c-4 -3 -7 -118 -7 -255 l0 -248 895 0 895 0 0 255 0 255
-888 0 c-489 0 -892 -3 -895 -7z"/>
<path d="M5380 5635 l0 -255 895 0 895 0 -2 253 -3 252 -892 3 -893 2 0 -255z"/>
<path d="M3590 4061 l0 -799 28 -52 c33 -64 99 -113 172 -129 33 -7 232 -11
560 -11 l510 0 0 895 0 895 -635 0 -635 0 0 -799z"/>
<path d="M5380 3965 l0 -896 543 3 542 3 53 29 c28 16 64 44 78 63 56 74 54
36 54 898 l0 795 -635 0 -635 0 0 -895z"/>
</g>
</svg>
